<svg width="60" height="60" viewBox="0 0 60 60" fill="none" xmlns="http://www.w3.org/2000/svg">
<path d="M0 30C0 13.4315 13.4315 0 30 0C46.5685 0 60 13.4315 60 30C60 46.5685 46.5685 60 30 60C13.4315 60 0 46.5685 0 30Z" fill="#FF7E0C" fill-opacity="0.2"/>
<path d="M39.3333 27.6668C39.3333 33.492 32.8711 39.5587 30.7011 41.4323C30.499 41.5843 30.2529 41.6665 30 41.6665C29.747 41.6665 29.5009 41.5843 29.2988 41.4323C27.1288 39.5587 20.6666 33.492 20.6666 27.6668C20.6666 25.1915 21.65 22.8175 23.4003 21.0672C25.1506 19.3168 27.5246 18.3335 30 18.3335C32.4753 18.3335 34.8493 19.3168 36.5996 21.0672C38.35 22.8175 39.3333 25.1915 39.3333 27.6668Z" stroke="#FF7E0C" stroke-width="2.33333" stroke-linecap="round" stroke-linejoin="round"/>
<path d="M30 31.1665C31.933 31.1665 33.5 29.5995 33.5 27.6665C33.5 25.7335 31.933 24.1665 30 24.1665C28.067 24.1665 26.5 25.7335 26.5 27.6665C26.5 29.5995 28.067 31.1665 30 31.1665Z" stroke="#FF7E0C" stroke-width="2.33333" stroke-linecap="round" stroke-linejoin="round"/>
</svg>
