<svg width="60" height="60" viewBox="0 0 60 60" fill="none" xmlns="http://www.w3.org/2000/svg">
<path d="M0 30C0 13.4315 13.4315 0 30 0C46.5685 0 60 13.4315 60 30C60 46.5685 46.5685 60 30 60C13.4315 60 0 46.5685 0 30Z" fill="#FF7E0C" fill-opacity="0.2"/>
<path d="M41.6667 24.1665L31.1772 30.848C30.8212 31.0548 30.4169 31.1637 30.0053 31.1637C29.5936 31.1637 29.1893 31.0548 28.8334 30.848L18.3334 24.1665" stroke="#FF7E0C" stroke-width="2.33333" stroke-linecap="round" stroke-linejoin="round"/>
<path d="M39.3334 20.6665H20.6667C19.378 20.6665 18.3334 21.7112 18.3334 22.9998V36.9998C18.3334 38.2885 19.378 39.3332 20.6667 39.3332H39.3334C40.622 39.3332 41.6667 38.2885 41.6667 36.9998V22.9998C41.6667 21.7112 40.622 20.6665 39.3334 20.6665Z" stroke="#FF7E0C" stroke-width="2.33333" stroke-linecap="round" stroke-linejoin="round"/>
</svg>
