<svg width="60" height="60" viewBox="0 0 60 60" fill="none" xmlns="http://www.w3.org/2000/svg">
<path d="M0 30C0 13.4315 13.4315 0 30 0C46.5685 0 60 13.4315 60 30C60 46.5685 46.5685 60 30 60C13.4315 60 0 46.5685 0 30Z" fill="#FF7E0C" fill-opacity="0.2"/>
<path d="M32.1374 35.3295C32.3783 35.4402 32.6498 35.4654 32.907 35.4012C33.1643 35.3369 33.3919 35.187 33.5525 34.976L33.9667 34.4335C34.184 34.1437 34.4659 33.9085 34.7899 33.7465C35.1139 33.5845 35.4711 33.5002 35.8334 33.5002H39.3334C39.9522 33.5002 40.5457 33.746 40.9833 34.1836C41.4209 34.6212 41.6667 35.2147 41.6667 35.8335V39.3335C41.6667 39.9523 41.4209 40.5458 40.9833 40.9834C40.5457 41.421 39.9522 41.6668 39.3334 41.6668C33.7638 41.6668 28.4224 39.4543 24.4841 35.5161C20.5459 31.5778 18.3334 26.2364 18.3334 20.6668C18.3334 20.048 18.5792 19.4545 19.0168 19.0169C19.4544 18.5793 20.0479 18.3335 20.6667 18.3335H24.1667C24.7855 18.3335 25.379 18.5793 25.8166 19.0169C26.2542 19.4545 26.5 20.048 26.5 20.6668V24.1668C26.5 24.5291 26.4157 24.8863 26.2537 25.2103C26.0917 25.5343 25.8565 25.8162 25.5667 26.0335L25.0207 26.443C24.8065 26.6065 24.6556 26.8392 24.5935 27.1014C24.5314 27.3636 24.562 27.6393 24.68 27.8815C26.2745 31.12 28.8969 33.7391 32.1374 35.3295Z" stroke="#FF7E0C" stroke-width="2.33333" stroke-linecap="round" stroke-linejoin="round"/>
</svg>
