<svg width="64" height="64" viewBox="0 0 64 64" fill="none" xmlns="http://www.w3.org/2000/svg">
<path d="M53.3332 34.6666C53.3332 47.9999 43.9998 54.6666 32.9065 58.5332C32.3256 58.7301 31.6946 58.7207 31.1198 58.5066C19.9998 54.6666 10.6665 47.9999 10.6665 34.6666V15.9999C10.6665 15.2927 10.9475 14.6144 11.4476 14.1143C11.9477 13.6142 12.6259 13.3332 13.3332 13.3332C18.6665 13.3332 25.3332 10.1332 29.9732 6.0799C30.5381 5.59723 31.2568 5.33203 31.9998 5.33203C32.7429 5.33203 33.4616 5.59723 34.0265 6.0799C38.6932 10.1599 45.3332 13.3332 50.6665 13.3332C51.3737 13.3332 52.052 13.6142 52.5521 14.1143C53.0522 14.6144 53.3332 15.2927 53.3332 15.9999V34.6666Z" stroke="#FF7E0C" stroke-width="4" stroke-linecap="round" stroke-linejoin="round"/>
</svg>
