<svg width="1820" height="811" viewBox="0 0 1820 811" fill="none" xmlns="http://www.w3.org/2000/svg">
<path d="M66.0187 100.108H221.448C248.558 100.108 269.968 77.0938 268.012 50.0542C266.056 23.0145 287.466 0.000458934 314.576 0.000447233L1300.81 2.16018e-05C1328.46 9.6705e-06 1350.87 22.4076 1350.88 50.0538C1350.89 77.6999 1373.3 100.107 1400.95 100.107L1759.38 100.108C1792.52 100.108 1819.38 126.972 1819.38 160.11L1819.36 669.058C1819.36 702.194 1792.5 729.055 1759.36 729.055H1462.07C1439.44 729.055 1421.1 747.399 1421.1 770.028C1421.1 792.656 1402.75 811 1380.13 811H60C26.624 811 -0.336829 783.763 0.00311393 750.389L6.02182 159.497C6.3569 126.6 33.12 100.108 66.0187 100.108Z" fill="black"/>
</svg>
