<svg width="240" height="51" viewBox="0 0 240 51" fill="none" xmlns="http://www.w3.org/2000/svg">
<path d="M58.4565 35.0876V31.394H63.9205C65.3044 31.394 66.5152 31.1091 67.5531 30.5393C68.5909 29.9491 69.3948 29.1249 69.9646 28.0667C70.5547 27.0085 70.8498 25.7569 70.8498 24.3121C70.8498 22.9079 70.5547 21.6869 69.9646 20.649C69.3744 19.5908 68.5604 18.7768 67.5225 18.207C66.4847 17.6168 65.284 17.3217 63.9205 17.3217H58.3649V13.6281H63.9816C65.5689 13.6281 67.0341 13.8927 68.3773 14.4218C69.7407 14.9509 70.9211 15.7039 71.9182 16.6807C72.9357 17.6371 73.7192 18.7666 74.2687 20.069C74.8385 21.3714 75.1234 22.796 75.1234 24.3426C75.1234 25.8892 74.8385 27.3239 74.2687 28.6467C73.7192 29.9491 72.9459 31.0887 71.9487 32.0656C70.9516 33.022 69.7713 33.7648 68.4078 34.2939C67.0647 34.823 65.6096 35.0876 64.0426 35.0876H58.4565ZM55.6176 35.0876V13.6281H59.7691V35.0876H55.6176ZM76.835 35.0876L85.4737 13.6281H88.8621L97.4703 35.0876H93.0441L86.3895 17.4743H87.9158L81.1696 35.0876H76.835ZM81.4138 31.0887V27.6088H92.9525V31.0887H81.4138ZM102.782 35.0876V14.086H106.964V35.0876H102.782ZM95.9447 17.3217V13.6281H113.802V17.3217H95.9447ZM112.309 35.0876L120.948 13.6281H124.336L132.944 35.0876H128.518L121.864 17.4743H123.39L116.644 35.0876H112.309ZM116.888 31.0887V27.6088H128.427V31.0887H116.888ZM141.259 35.3928C139.529 35.3928 138.044 35.0978 136.802 34.5076C135.581 33.9174 134.472 33.0322 133.475 31.8519L136.222 29.1046C136.853 29.9389 137.586 30.5902 138.42 31.0582C139.254 31.5059 140.272 31.7298 141.473 31.7298C142.551 31.7298 143.406 31.5161 144.037 31.0887C144.688 30.6614 145.014 30.0712 145.014 29.3183C145.014 28.667 144.83 28.1379 144.464 27.7309C144.098 27.3239 143.609 26.978 142.999 26.6931C142.409 26.4082 141.747 26.1538 141.015 25.9299C140.302 25.6857 139.58 25.411 138.847 25.1057C138.135 24.8005 137.474 24.424 136.863 23.9763C136.273 23.5082 135.795 22.9181 135.429 22.2058C135.062 21.4732 134.879 20.5574 134.879 19.4585C134.879 18.1561 135.195 17.047 135.825 16.1312C136.456 15.2155 137.321 14.5134 138.42 14.025C139.519 13.5365 140.76 13.2923 142.144 13.2923C143.609 13.2923 144.932 13.5671 146.112 14.1165C147.293 14.666 148.259 15.3783 149.012 16.2533L146.265 19.0006C145.634 18.3087 144.983 17.7999 144.311 17.4743C143.66 17.1487 142.917 16.9859 142.083 16.9859C141.127 16.9859 140.374 17.1691 139.824 17.5354C139.275 17.9017 139 18.4308 139 19.1227C139 19.7129 139.183 20.1911 139.549 20.5574C139.916 20.9237 140.394 21.2392 140.984 21.5037C141.595 21.7683 142.256 22.0226 142.968 22.2669C143.701 22.5111 144.423 22.7858 145.136 23.091C145.868 23.3963 146.53 23.7931 147.12 24.2815C147.73 24.7699 148.219 25.4008 148.585 26.1741C148.951 26.9271 149.135 27.8632 149.135 28.9825C149.135 30.9768 148.432 32.5438 147.028 33.6834C145.624 34.823 143.701 35.3928 141.259 35.3928ZM152.411 35.0876V13.6281H156.562V35.0876H152.411ZM165.873 35.0876V13.6281H170.024V35.0876H165.873ZM155.036 25.8383V22.1753H167.033V25.8383H155.036ZM174.411 35.0876V13.6281H178.562V35.0876H174.411ZM182.966 35.0876V13.6281H187.118V35.0876H182.966ZM186.019 35.0876V31.4245H197.893V35.0876H186.019ZM186.019 25.8994V22.3584H196.825V25.8994H186.019ZM186.019 17.2912V13.6281H197.741V17.2912H186.019ZM201.329 35.0876V13.6281H205.481V35.0876H201.329ZM204.382 35.0876V31.394H215.31V35.0876H204.382ZM221.13 35.0876V31.394H226.594C227.978 31.394 229.189 31.1091 230.227 30.5393C231.265 29.9491 232.069 29.1249 232.638 28.0667C233.229 27.0085 233.524 25.7569 233.524 24.3121C233.524 22.9079 233.229 21.6869 232.638 20.649C232.048 19.5908 231.234 18.7768 230.196 18.207C229.158 17.6168 227.958 17.3217 226.594 17.3217H221.039V13.6281H226.655C228.243 13.6281 229.708 13.8927 231.051 14.4218C232.415 14.9509 233.595 15.7039 234.592 16.6807C235.61 17.6371 236.393 18.7666 236.942 20.069C237.512 21.3714 237.797 22.796 237.797 24.3426C237.797 25.8892 237.512 27.3239 236.942 28.6467C236.393 29.9491 235.62 31.0887 234.623 32.0656C233.625 33.022 232.445 33.7648 231.082 34.2939C229.738 34.823 228.283 35.0876 226.716 35.0876H221.13ZM218.291 35.0876V13.6281H222.443V35.0876H218.291Z" fill="black"/>
<path d="M38.1572 9.39453V23.1484C38.1572 29.0482 36.4132 34.3878 32.8887 39.2383C29.5142 43.8823 25.3463 46.8409 20.3506 48.2422C15.3563 46.8393 11.1878 43.8798 7.81152 39.2354C4.2856 34.385 2.54243 29.0467 2.54395 23.1494V9.39453L20.3496 2.71582L38.1572 9.39453Z" stroke="black" stroke-width="5.08759"/>
<path d="M20.3504 43.2445C16.6672 42.2058 13.6263 39.8387 11.2277 36.1433C8.82911 32.4478 7.63035 28.3452 7.63141 23.8354V12.9734L20.3504 7.63138L33.0694 12.9734V23.8354C33.0694 28.3464 31.8706 32.4496 29.4731 36.145C27.0756 39.8405 24.0347 42.207 20.3504 43.2445Z" fill="#FF7E0C"/>
</svg>
